<svg xmlns="http://www.w3.org/2000/svg" xmlns:xlink="http://www.w3.org/1999/xlink" width="100" height="100" viewBox="0 0 100 100"><circle stroke="none" fill="#E3E3E3" r="48%" cx="50%" cy="50%"></circle><g transform="translate(50 50) scale(0.69 0.69) rotate(0) translate(-50 -50)" style="fill:#8500CC"><svg fill="#8500CC" xmlns="http://www.w3.org/2000/svg" xmlns:xlink="http://www.w3.org/1999/xlink" xml:space="preserve" version="1.1" style="shape-rendering:geometricPrecision;text-rendering:geometricPrecision;image-rendering:optimizeQuality;" viewBox="0 0 244 172" x="0px" y="0px" fill-rule="evenodd" clip-rule="evenodd"><defs><style type="text/css">
   
    .fil1 {fill:#8500CC}
    .fil0 {fill:#8500CC;fill-rule:nonzero}
   
  </style></defs><g><path class="fil0" d="M132 43l-3 12c-2,-2 -2,-2 -1,-6 -1,1 -2,3 -3,4 -6,-6 3,-8 7,-10z"></path><path class="fil0" d="M175 44c3,5 2,7 -1,12 -6,7 -9,13 -13,11 1,-8 -1,-12 1,-16 2,-4 9,-12 13,-7z"></path><path class="fil0" d="M59 87c-6,27 3,27 19,11 -6,-4 -13,-7 -19,-11z"></path><path class="fil0" d="M73 51c-2,-2 -3,-5 -6,-1 0,1 0,1 0,2 2,-1 4,-1 6,-1z"></path><path class="fil0" d="M37 79c-7,82 95,126 150,64 -2,0 -3,-1 -5,-1 -7,7 -15,13 -24,18 1,-19 5,-9 12,-22 -29,-10 -18,-10 -36,-7 0,1 1,15 1,15 1,1 6,1 6,4 -1,7 -2,2 4,14 -18,6 -39,5 -58,-4 -26,-12 -43,-37 -46,-64 -1,-6 -3,-11 -4,-17z"></path><path class="fil0" d="M159 8c-45,-21 -98,0 -117,46 1,0 2,1 3,1 0,0 1,0 2,0 1,-4 3,-7 5,-11 0,1 0,2 0,4 2,-1 4,-2 6,-3 11,-6 10,2 19,3 1,0 1,1 0,2 10,-2 10,6 8,8 -6,4 -11,8 -17,12 13,8 26,15 40,21 10,-16 -5,-27 -5,-27 0,0 -9,6 -8,-3 -7,-4 -9,-3 -6,-10 9,7 4,1 8,2 4,1 -6,6 2,4 2,-1 2,-5 8,-2 -4,5 -6,-3 -6,5 3,-1 5,-1 8,-1 4,11 -3,10 4,15 2,-2 3,-3 4,-5 -2,-2 -3,-3 -5,-5 13,-5 4,-9 5,-15 2,-5 -1,-2 -3,-4 -5,-4 -2,-11 -3,-14 1,-1 7,4 7,-1 0,-6 3,-5 2,0 -1,2 -10,14 -4,13 5,-1 2,-1 5,1 5,5 4,-12 4,-14 0,-11 -4,-10 -12,-16l-7 -8c38,-8 76,12 91,47 -11,4 6,18 -1,23 -22,14 -5,-3 -11,-8 -4,-4 -6,4 -9,3 -4,-1 -11,10 -13,13 3,2 6,5 8,8 13,14 3,18 8,20 1,-1 2,-2 3,-4 3,2 13,6 4,13 -2,-4 -4,-5 -4,-4 -2,1 -1,3 -2,4 6,3 12,3 17,-1l-3 6c1,0 2,0 4,1 23,-44 6,-98 -39,-119z"></path><path class="fil1" d="M56 82c16,9 34,19 54,28 67,32 127,46 133,32 4,-8 -9,-23 -33,-40 0,2 -1,3 -1,5 15,11 23,19 20,24 -4,9 -55,-5 -113,-33 -20,-9 -38,-19 -53,-28 7,-4 13,-9 20,-14 1,-3 -2,-4 -4,-4 -12,2 -24,4 -36,6 -7,2 -8,4 -6,11 3,12 6,23 9,35 1,2 3,4 5,2 2,-8 3,-16 5,-24z"></path><path class="fil1" d="M54 28c-61,-16 -73,1 -22,38 -1,-6 2,-9 7,-11 -33,-24 -27,-33 12,-23 1,-1 2,-2 3,-4z"></path></g></svg></g></svg>